<?xml version="1.0" standalone="no"?>
<!DOCTYPE svg PUBLIC "-//W3C//DTD SVG 20010904//EN"
 "http://www.w3.org/TR/2001/REC-SVG-20010904/DTD/svg10.dtd">
<svg version="1.0" xmlns="http://www.w3.org/2000/svg"
 width="66.000000pt" height="66.000000pt" viewBox="0 0 66.000000 66.000000"
 preserveAspectRatio="xMidYMid meet">

<g transform="translate(0.000000,66.000000) scale(0.100000,-0.100000)"
fill="#000000" stroke="none">
<path d="M50 551 c-6 -12 -10 -107 -10 -240 l0 -221 290 0 290 0 0 221 c0 133
-4 228 -10 240 -10 18 -24 19 -280 19 -256 0 -270 -1 -280 -19z m520 -266 l0
-155 -240 0 -240 0 0 155 0 155 240 0 240 0 0 -155z"/>
<path d="M343 392 c-12 -7 -53 -155 -53 -191 0 -30 29 -26 41 6 5 15 17 60 26
100 16 72 11 101 -14 85z"/>
<path d="M177 329 l-28 -41 28 -44 c28 -43 63 -59 63 -28 0 9 -9 28 -19 43
-19 26 -19 27 0 51 10 14 19 33 19 43 0 31 -34 18 -63 -24z"/>
<path d="M420 353 c0 -10 9 -29 19 -43 19 -24 19 -25 0 -51 -10 -15 -19 -34
-19 -43 0 -31 35 -15 63 28 l28 44 -28 41 c-29 42 -63 55 -63 24z"/>
</g>
</svg>
