<?xml version="1.0" standalone="no"?>
<!DOCTYPE svg PUBLIC "-//W3C//DTD SVG 20010904//EN"
 "http://www.w3.org/TR/2001/REC-SVG-20010904/DTD/svg10.dtd">
<svg version="1.0" xmlns="http://www.w3.org/2000/svg"
 width="66.000000pt" height="66.000000pt" viewBox="0 0 66.000000 66.000000"
 preserveAspectRatio="xMidYMid meet">

<g transform="translate(0.000000,66.000000) scale(0.100000,-0.100000)"
fill="#000000" stroke="none">
<path d="M61 544 c-19 -24 -21 -40 -21 -176 0 -84 5 -158 10 -169 10 -17 7
-19 -20 -19 -36 0 -39 -18 -7 -48 18 -17 36 -22 75 -22 l52 0 0 45 c0 43 -1
45 -30 45 l-30 0 2 163 3 162 228 3 c219 2 227 3 227 22 0 19 -7 20 -234 20
l-235 0 -20 -26z"/>
<path d="M360 461 c-16 -31 -12 -41 15 -41 14 0 25 5 25 10 0 6 43 10 110 10
l111 0 -3 -142 -3 -143 -40 -3 c-22 -2 -46 -8 -53 -14 -9 -8 -16 -8 -24 0 -21
21 -38 13 -38 -18 l0 -30 88 0 c55 0 92 4 100 12 17 17 17 349 0 366 -8 8 -55
12 -145 12 -121 0 -133 -2 -143 -19z"/>
<path d="M212 358 c-17 -17 -17 -259 0 -276 8 -8 45 -12 100 -12 76 0 89 2 98
19 5 11 10 70 10 131 0 61 -5 120 -10 131 -9 17 -22 19 -98 19 -55 0 -92 -4
-100 -12z m158 -138 c0 -92 -3 -110 -15 -110 -8 0 -25 -6 -36 -12 -17 -10 -23
-10 -26 0 -3 6 -16 12 -29 12 -24 0 -24 0 -24 110 l0 110 65 0 65 0 0 -110z"/>
</g>
</svg>
