<?xml version="1.0" standalone="no"?>
<!DOCTYPE svg PUBLIC "-//W3C//DTD SVG 20010904//EN"
 "http://www.w3.org/TR/2001/REC-SVG-20010904/DTD/svg10.dtd">
<svg version="1.0" xmlns="http://www.w3.org/2000/svg"
 width="57.000000pt" height="57.000000pt" viewBox="0 0 57.000000 57.000000"
 preserveAspectRatio="xMidYMid meet">

<g transform="translate(0.000000,57.000000) scale(0.100000,-0.100000)"
fill="#000000" stroke="none">
<path d="M87 484 c-4 -4 -7 -28 -7 -54 0 -38 -6 -55 -30 -85 -36 -45 -35 -69
2 -73 25 -3 31 3 55 52 23 48 31 56 55 56 26 0 28 -2 21 -27 -11 -46 -9 -65
10 -77 29 -19 52 4 55 58 3 45 4 46 37 46 33 0 34 -1 37 -46 3 -54 26 -77 56
-58 18 12 20 31 9 77 -7 25 -5 27 21 27 24 0 32 -8 55 -56 24 -49 30 -55 55
-52 37 4 39 29 5 69 -21 24 -29 47 -33 88 l-5 56 -196 3 c-107 1 -198 -1 -202
-4z m63 -50 c0 -14 -21 -19 -33 -7 -9 9 13 34 24 27 5 -3 9 -12 9 -20z m80 5
c0 -12 -29 -24 -37 -16 -3 4 -3 13 0 21 6 16 37 11 37 -5z"/>
<path d="M82 158 l3 -73 70 -5 c55 -4 70 -9 73 -22 2 -13 -5 -17 -35 -20 -26
-2 -38 -8 -38 -18 0 -13 22 -15 140 -15 118 0 140 2 140 15 0 10 -12 16 -37
18 -30 3 -38 7 -38 22 0 16 9 19 63 22 l62 3 3 73 c2 58 0 72 -12 72 -11 0
-16 -14 -18 -57 l-3 -58 -170 0 -170 0 -3 58 c-2 43 -7 57 -18 57 -12 0 -14
-14 -12 -72z"/>
</g>
</svg>
