<?xml version="1.0" standalone="no"?>
<!DOCTYPE svg PUBLIC "-//W3C//DTD SVG 20010904//EN"
 "http://www.w3.org/TR/2001/REC-SVG-20010904/DTD/svg10.dtd">
<svg version="1.0" xmlns="http://www.w3.org/2000/svg"
 width="66.000000pt" height="66.000000pt" viewBox="0 0 66.000000 66.000000"
 preserveAspectRatio="xMidYMid meet">

<g transform="translate(0.000000,66.000000) scale(0.100000,-0.100000)"
fill="#000000" stroke="none">
<path d="M82 558 c-7 -7 -12 -36 -12 -65 l0 -53 260 0 260 0 0 53 c0 29 -5 58
-12 65 -17 17 -479 17 -496 0z m65 -44 c8 -20 -8 -36 -26 -25 -15 10 -8 41 9
41 6 0 13 -7 17 -16z m90 0 c8 -20 -8 -36 -26 -25 -15 10 -8 41 9 41 6 0 13
-7 17 -16z"/>
<path d="M70 245 l0 -155 260 0 260 0 0 155 c0 148 -1 155 -20 155 -19 0 -20
-7 -20 -135 l0 -135 -220 0 -220 0 0 135 c0 128 -1 135 -20 135 -19 0 -20 -7
-20 -155z"/>
<path d="M157 394 c-4 -4 -7 -54 -7 -111 l0 -103 80 0 81 0 -3 108 -3 107 -70
3 c-39 1 -74 0 -78 -4z"/>
<path d="M361 391 c-8 -5 -11 -16 -8 -25 5 -12 21 -16 70 -16 67 0 95 13 76
37 -13 15 -116 18 -138 4z"/>
<path d="M355 300 c-14 -23 17 -40 74 -40 62 0 88 14 70 37 -14 16 -135 18
-144 3z"/>
<path d="M355 210 c-13 -21 9 -30 74 -30 72 0 83 4 74 26 -6 17 -138 20 -148
4z"/>
</g>
</svg>
